<?xml version="1.0" standalone="no"?>
<!DOCTYPE svg PUBLIC "-//W3C//DTD SVG 20010904//EN"
 "http://www.w3.org/TR/2001/REC-SVG-20010904/DTD/svg10.dtd">
<svg version="1.0" xmlns="http://www.w3.org/2000/svg"
 width="500.000000pt" height="500.000000pt" viewBox="0 0 500.000000 500.000000"
 preserveAspectRatio="xMidYMid meet">
<metadata>
Created by potrace 1.14, written by Peter Selinger 2001-2017
</metadata>
<g transform="translate(0.000000,500.000000) scale(0.100000,-0.100000)"
fill="#000000" stroke="none">
<path d="M2707 4908 c-9 -5 -17 -7 -17 -4 0 8 -45 -18 -76 -45 -40 -35 -56
-65 -69 -129 -14 -64 2 -154 35 -200 14 -19 19 -39 16 -62 -30 -230 -38 -274
-53 -283 -9 -5 -40 -29 -69 -52 -28 -23 -54 -40 -56 -37 -25 24 -466 24 -588
-1 -14 -3 -50 -10 -80 -16 -30 -6 -59 -12 -65 -13 -67 -18 -106 -29 -137 -41
-21 -8 -38 -13 -38 -10 0 3 -11 -2 -24 -11 -14 -8 -29 -16 -33 -16 -15 -1 -58
-19 -137 -59 -209 -105 -391 -259 -544 -460 -40 -54 -162 -262 -162 -278 0 -5
-6 -21 -14 -37 -18 -36 -38 -85 -42 -101 -3 -16 -24 -84 -31 -103 -8 -18 -7
-16 -18 -65 -5 -22 -9 -42 -10 -45 -1 -3 -5 -27 -10 -55 -4 -27 -9 -59 -11
-69 -23 -129 -18 -442 10 -576 3 -13 8 -42 11 -63 4 -22 10 -50 15 -63 5 -13
8 -24 5 -24 -2 0 2 -18 10 -40 8 -22 12 -40 9 -40 -2 0 2 -16 10 -35 8 -19 12
-35 9 -35 -3 0 0 -7 7 -15 7 -8 9 -15 5 -15 -4 0 -3 -6 3 -12 6 -7 10 -17 10
-21 1 -14 54 -152 68 -174 8 -13 12 -23 9 -23 -6 0 79 -167 117 -230 12 -19
26 -44 32 -55 18 -33 50 -79 63 -93 7 -7 13 -17 13 -22 0 -5 6 -15 12 -22 7
-7 33 -40 58 -73 25 -33 50 -65 56 -71 5 -6 26 -31 45 -54 49 -61 228 -237
296 -292 32 -25 69 -55 83 -67 35 -29 38 -31 105 -76 33 -22 61 -43 63 -47 2
-5 8 -8 13 -8 5 0 33 -16 64 -35 74 -48 265 -148 265 -139 0 4 8 0 18 -8 9 -9
37 -23 62 -31 25 -9 82 -29 128 -46 45 -16 82 -27 82 -24 0 3 7 0 15 -7 9 -7
18 -10 22 -7 3 3 18 0 34 -9 16 -8 31 -14 34 -14 3 0 6 0 8 -1 1 -1 13 -3 27
-5 14 -2 59 -10 100 -18 73 -14 145 -24 225 -32 87 -8 345 -2 411 10 17 3 46
8 65 10 19 3 56 10 82 15 27 6 53 9 58 6 5 -4 9 -1 9 6 0 7 3 9 7 6 3 -4 12
-2 20 5 7 6 16 8 20 5 3 -3 18 0 34 9 16 8 29 11 29 7 0 -4 5 -2 12 5 7 7 22
12 35 12 13 0 23 4 23 8 0 5 7 9 16 9 17 0 156 64 165 76 3 5 9 8 13 8 10 -2
70 31 77 41 3 5 8 8 10 7 8 -7 146 94 228 166 41 36 118 118 175 186 63 76
239 379 220 379 -4 0 -2 6 4 12 5 7 20 45 32 83 12 39 25 77 28 85 3 8 6 18 7
23 2 4 3 8 5 10 1 1 3 11 4 22 2 11 8 45 14 75 39 181 46 475 16 646 -2 13 -6
34 -8 46 -2 13 -7 41 -11 63 -4 22 -13 62 -21 89 -7 27 -11 52 -8 57 3 5 0 9
-5 9 -6 0 -10 3 -9 8 4 10 -27 109 -68 217 -4 11 -6 23 -6 28 1 4 -2 7 -6 7
-5 0 -9 6 -9 13 0 20 -92 205 -155 312 -50 84 -168 258 -187 275 -4 3 -24 27
-46 55 -37 46 -58 69 -153 170 -72 75 -319 285 -337 285 -10 0 -35 28 -35 39
0 6 -4 11 -8 11 -4 0 -15 12 -24 28 -23 37 -124 142 -137 142 -6 0 -11 6 -11
13 0 7 -18 23 -40 37 -22 14 -40 28 -40 32 0 5 -7 8 -15 8 -8 0 -15 4 -15 8 0
4 -16 14 -35 21 -19 7 -35 17 -35 22 0 5 -7 9 -15 9 -8 0 -15 5 -15 11 0 5
-33 43 -74 82 l-74 72 -5 151 c-5 133 -4 151 11 161 55 34 90 199 59 273 -20
46 -74 103 -112 118 -39 16 -137 22 -158 10z"/>
</g>
</svg>
